M48
INCH,TZ
T1C0.012
%
G90
G05
T1
X30323Y32698
X30323Y37308
X30323Y31348
X30503Y35788
X30803Y35788
X31093Y32338
X31103Y32738
X31163Y34878
X31163Y36848
X31523Y35788
X31913Y34948
X31993Y32458
X32003Y37308
X32233Y31348
X32404Y34367
X32404Y33894
X32404Y33422
X32404Y32949
X32876Y34367
X32876Y33894
X32876Y33422
X32876Y32949
X32983Y37308
X33043Y35848
X33153Y36638
X33349Y34367
X33349Y33894
X33349Y33422
X33349Y32949
X33821Y34367
X33821Y33894
X33821Y33422
X33821Y32949
X34133Y35308
X34523Y35908
X34733Y32178
X34733Y31348
X34843Y36538
X35183Y37058
X35663Y37308
X35663Y35948
X35663Y35208
X35663Y34358
X35663Y32178
X35663Y31348
T0
M30
