G04 #@! TF.FileFunction,Copper,L2,Bot,Signal*
%FSLAX46Y46*%
G04 Gerber Fmt 4.6, Leading zero omitted, Abs format (unit mm)*
G04 Created by KiCad (PCBNEW 4.0.0-stable) date Saturday, February 27, 2016 'PMt' 06:44:56 PM*
%MOMM*%
G01*
G04 APERTURE LIST*
%ADD10C,0.100000*%
%ADD11C,0.609600*%
%ADD12C,0.228600*%
%ADD13C,0.254000*%
G04 APERTURE END LIST*
D10*
D11*
X79152940Y93594220D03*
X89363730Y94127620D03*
X83775740Y94762620D03*
X90582940Y94762620D03*
X77019340Y94762620D03*
X81286540Y94762620D03*
X80067330Y90901820D03*
X81057930Y88768220D03*
X77019330Y83053220D03*
X77019340Y79624220D03*
X84207530Y93060820D03*
X90582940Y81732420D03*
X83928130Y91054220D03*
X81261130Y82443620D03*
X78975130Y82138820D03*
X77476530Y90901820D03*
X90582940Y89428620D03*
X90582940Y91308220D03*
X90582940Y79624220D03*
X88220740Y79624220D03*
X81870740Y79624220D03*
X90582940Y87269620D03*
X88220730Y81732420D03*
X82305933Y87291617D03*
X83505933Y87291617D03*
X84705933Y87291617D03*
X85905933Y87291617D03*
X82305933Y86091617D03*
X83505933Y86091617D03*
X84705933Y86091617D03*
X85905933Y86091617D03*
X82305933Y84891617D03*
X83505933Y84891617D03*
X84705933Y84891617D03*
X85905933Y84891617D03*
X82305933Y83691617D03*
X83505933Y83691617D03*
X84705933Y83691617D03*
X85905933Y83691617D03*
X88500130Y92806820D03*
X87687330Y91206620D03*
X86696730Y89682620D03*
X78238530Y90901820D03*
X79152930Y88590420D03*
X79000530Y83154820D03*
D12*
X84359930Y92019420D02*
X86696730Y89682620D01*
X79356130Y92019420D02*
X84359930Y92019420D01*
X78238530Y90901820D02*
X79356130Y92019420D01*
X79000530Y88438020D02*
X79152930Y88590420D01*
X79000530Y83180220D02*
X79000530Y88438020D01*
D13*
G36*
X90924480Y79283860D02*
X76678180Y79283860D01*
X76678180Y81683299D01*
X87635762Y81683299D01*
X87656443Y81570613D01*
X87698619Y81464091D01*
X87760681Y81367789D01*
X87840266Y81285376D01*
X87934343Y81219991D01*
X88039329Y81174124D01*
X88151224Y81149522D01*
X88265766Y81147123D01*
X88378593Y81167018D01*
X88485407Y81208448D01*
X88582140Y81269836D01*
X88665107Y81348844D01*
X88731147Y81442463D01*
X88777746Y81547125D01*
X88803128Y81658846D01*
X88804955Y81789704D01*
X88782702Y81902089D01*
X88739044Y82008012D01*
X88675643Y82103438D01*
X88594915Y82184732D01*
X88499934Y82248797D01*
X88394319Y82293194D01*
X88282091Y82316231D01*
X88167526Y82317031D01*
X88054988Y82295563D01*
X87948763Y82252645D01*
X87852897Y82189912D01*
X87771041Y82109754D01*
X87706314Y82015222D01*
X87661181Y81909919D01*
X87637361Y81797855D01*
X87635762Y81683299D01*
X76678180Y81683299D01*
X76678180Y83105699D01*
X78415562Y83105699D01*
X78436243Y82993013D01*
X78478419Y82886491D01*
X78540481Y82790189D01*
X78620066Y82707776D01*
X78714143Y82642391D01*
X78819129Y82596524D01*
X78931024Y82571922D01*
X79045566Y82569523D01*
X79158393Y82589418D01*
X79265207Y82630848D01*
X79361940Y82692236D01*
X79444907Y82771244D01*
X79510947Y82864863D01*
X79557546Y82969525D01*
X79582928Y83081246D01*
X79584755Y83212104D01*
X79573027Y83271335D01*
X81886358Y83271335D01*
X81901284Y83133814D01*
X82017881Y83065589D01*
X82145548Y83021422D01*
X82279378Y83003010D01*
X82414229Y83011061D01*
X82544918Y83045265D01*
X82666423Y83104308D01*
X82710582Y83133814D01*
X82725508Y83271335D01*
X83086358Y83271335D01*
X83101284Y83133814D01*
X83217881Y83065589D01*
X83345548Y83021422D01*
X83479378Y83003010D01*
X83614229Y83011061D01*
X83744918Y83045265D01*
X83866423Y83104308D01*
X83910582Y83133814D01*
X83925508Y83271335D01*
X84286358Y83271335D01*
X84301284Y83133814D01*
X84417881Y83065589D01*
X84545548Y83021422D01*
X84679378Y83003010D01*
X84814229Y83011061D01*
X84944918Y83045265D01*
X85066423Y83104308D01*
X85110582Y83133814D01*
X85125508Y83271335D01*
X85486358Y83271335D01*
X85501284Y83133814D01*
X85617881Y83065589D01*
X85745548Y83021422D01*
X85879378Y83003010D01*
X86014229Y83011061D01*
X86144918Y83045265D01*
X86266423Y83104308D01*
X86310582Y83133814D01*
X86325508Y83271335D01*
X85905933Y83690910D01*
X85486358Y83271335D01*
X85125508Y83271335D01*
X84705933Y83690910D01*
X84286358Y83271335D01*
X83925508Y83271335D01*
X83505933Y83690910D01*
X83086358Y83271335D01*
X82725508Y83271335D01*
X82305933Y83690910D01*
X81886358Y83271335D01*
X79573027Y83271335D01*
X79562502Y83324489D01*
X79518844Y83430412D01*
X79455443Y83525838D01*
X79394230Y83587480D01*
X79394230Y83718172D01*
X81617326Y83718172D01*
X81625377Y83583321D01*
X81659581Y83452632D01*
X81718624Y83331127D01*
X81748130Y83286968D01*
X81885651Y83272042D01*
X82305226Y83691617D01*
X82306640Y83691617D01*
X82726215Y83272042D01*
X82863736Y83286968D01*
X82905445Y83358249D01*
X82918624Y83331127D01*
X82948130Y83286968D01*
X83085651Y83272042D01*
X83505226Y83691617D01*
X83506640Y83691617D01*
X83926215Y83272042D01*
X84063736Y83286968D01*
X84105445Y83358249D01*
X84118624Y83331127D01*
X84148130Y83286968D01*
X84285651Y83272042D01*
X84705226Y83691617D01*
X84706640Y83691617D01*
X85126215Y83272042D01*
X85263736Y83286968D01*
X85305445Y83358249D01*
X85318624Y83331127D01*
X85348130Y83286968D01*
X85485651Y83272042D01*
X85905226Y83691617D01*
X85906640Y83691617D01*
X86326215Y83272042D01*
X86463736Y83286968D01*
X86531961Y83403565D01*
X86576128Y83531232D01*
X86594540Y83665062D01*
X86586489Y83799913D01*
X86552285Y83930602D01*
X86493242Y84052107D01*
X86463736Y84096266D01*
X86326215Y84111192D01*
X85906640Y83691617D01*
X85905226Y83691617D01*
X85485651Y84111192D01*
X85348130Y84096266D01*
X85306421Y84024985D01*
X85293242Y84052107D01*
X85263736Y84096266D01*
X85126215Y84111192D01*
X84706640Y83691617D01*
X84705226Y83691617D01*
X84285651Y84111192D01*
X84148130Y84096266D01*
X84106421Y84024985D01*
X84093242Y84052107D01*
X84063736Y84096266D01*
X83926215Y84111192D01*
X83506640Y83691617D01*
X83505226Y83691617D01*
X83085651Y84111192D01*
X82948130Y84096266D01*
X82906421Y84024985D01*
X82893242Y84052107D01*
X82863736Y84096266D01*
X82726215Y84111192D01*
X82306640Y83691617D01*
X82305226Y83691617D01*
X81885651Y84111192D01*
X81748130Y84096266D01*
X81679905Y83979669D01*
X81635738Y83852002D01*
X81617326Y83718172D01*
X79394230Y83718172D01*
X79394230Y84471335D01*
X81886358Y84471335D01*
X81901284Y84333814D01*
X81972565Y84292105D01*
X81945443Y84278926D01*
X81901284Y84249420D01*
X81886358Y84111899D01*
X82305933Y83692324D01*
X82725508Y84111899D01*
X82710582Y84249420D01*
X82639301Y84291129D01*
X82666423Y84304308D01*
X82710582Y84333814D01*
X82725508Y84471335D01*
X83086358Y84471335D01*
X83101284Y84333814D01*
X83172565Y84292105D01*
X83145443Y84278926D01*
X83101284Y84249420D01*
X83086358Y84111899D01*
X83505933Y83692324D01*
X83925508Y84111899D01*
X83910582Y84249420D01*
X83839301Y84291129D01*
X83866423Y84304308D01*
X83910582Y84333814D01*
X83925508Y84471335D01*
X84286358Y84471335D01*
X84301284Y84333814D01*
X84372565Y84292105D01*
X84345443Y84278926D01*
X84301284Y84249420D01*
X84286358Y84111899D01*
X84705933Y83692324D01*
X85125508Y84111899D01*
X85110582Y84249420D01*
X85039301Y84291129D01*
X85066423Y84304308D01*
X85110582Y84333814D01*
X85125508Y84471335D01*
X85486358Y84471335D01*
X85501284Y84333814D01*
X85572565Y84292105D01*
X85545443Y84278926D01*
X85501284Y84249420D01*
X85486358Y84111899D01*
X85905933Y83692324D01*
X86325508Y84111899D01*
X86310582Y84249420D01*
X86239301Y84291129D01*
X86266423Y84304308D01*
X86310582Y84333814D01*
X86325508Y84471335D01*
X85905933Y84890910D01*
X85486358Y84471335D01*
X85125508Y84471335D01*
X84705933Y84890910D01*
X84286358Y84471335D01*
X83925508Y84471335D01*
X83505933Y84890910D01*
X83086358Y84471335D01*
X82725508Y84471335D01*
X82305933Y84890910D01*
X81886358Y84471335D01*
X79394230Y84471335D01*
X79394230Y84918172D01*
X81617326Y84918172D01*
X81625377Y84783321D01*
X81659581Y84652632D01*
X81718624Y84531127D01*
X81748130Y84486968D01*
X81885651Y84472042D01*
X82305226Y84891617D01*
X82306640Y84891617D01*
X82726215Y84472042D01*
X82863736Y84486968D01*
X82905445Y84558249D01*
X82918624Y84531127D01*
X82948130Y84486968D01*
X83085651Y84472042D01*
X83505226Y84891617D01*
X83506640Y84891617D01*
X83926215Y84472042D01*
X84063736Y84486968D01*
X84105445Y84558249D01*
X84118624Y84531127D01*
X84148130Y84486968D01*
X84285651Y84472042D01*
X84705226Y84891617D01*
X84706640Y84891617D01*
X85126215Y84472042D01*
X85263736Y84486968D01*
X85305445Y84558249D01*
X85318624Y84531127D01*
X85348130Y84486968D01*
X85485651Y84472042D01*
X85905226Y84891617D01*
X85906640Y84891617D01*
X86326215Y84472042D01*
X86463736Y84486968D01*
X86531961Y84603565D01*
X86576128Y84731232D01*
X86594540Y84865062D01*
X86586489Y84999913D01*
X86552285Y85130602D01*
X86493242Y85252107D01*
X86463736Y85296266D01*
X86326215Y85311192D01*
X85906640Y84891617D01*
X85905226Y84891617D01*
X85485651Y85311192D01*
X85348130Y85296266D01*
X85306421Y85224985D01*
X85293242Y85252107D01*
X85263736Y85296266D01*
X85126215Y85311192D01*
X84706640Y84891617D01*
X84705226Y84891617D01*
X84285651Y85311192D01*
X84148130Y85296266D01*
X84106421Y85224985D01*
X84093242Y85252107D01*
X84063736Y85296266D01*
X83926215Y85311192D01*
X83506640Y84891617D01*
X83505226Y84891617D01*
X83085651Y85311192D01*
X82948130Y85296266D01*
X82906421Y85224985D01*
X82893242Y85252107D01*
X82863736Y85296266D01*
X82726215Y85311192D01*
X82306640Y84891617D01*
X82305226Y84891617D01*
X81885651Y85311192D01*
X81748130Y85296266D01*
X81679905Y85179669D01*
X81635738Y85052002D01*
X81617326Y84918172D01*
X79394230Y84918172D01*
X79394230Y85671335D01*
X81886358Y85671335D01*
X81901284Y85533814D01*
X81972565Y85492105D01*
X81945443Y85478926D01*
X81901284Y85449420D01*
X81886358Y85311899D01*
X82305933Y84892324D01*
X82725508Y85311899D01*
X82710582Y85449420D01*
X82639301Y85491129D01*
X82666423Y85504308D01*
X82710582Y85533814D01*
X82725508Y85671335D01*
X83086358Y85671335D01*
X83101284Y85533814D01*
X83172565Y85492105D01*
X83145443Y85478926D01*
X83101284Y85449420D01*
X83086358Y85311899D01*
X83505933Y84892324D01*
X83925508Y85311899D01*
X83910582Y85449420D01*
X83839301Y85491129D01*
X83866423Y85504308D01*
X83910582Y85533814D01*
X83925508Y85671335D01*
X84286358Y85671335D01*
X84301284Y85533814D01*
X84372565Y85492105D01*
X84345443Y85478926D01*
X84301284Y85449420D01*
X84286358Y85311899D01*
X84705933Y84892324D01*
X85125508Y85311899D01*
X85110582Y85449420D01*
X85039301Y85491129D01*
X85066423Y85504308D01*
X85110582Y85533814D01*
X85125508Y85671335D01*
X85486358Y85671335D01*
X85501284Y85533814D01*
X85572565Y85492105D01*
X85545443Y85478926D01*
X85501284Y85449420D01*
X85486358Y85311899D01*
X85905933Y84892324D01*
X86325508Y85311899D01*
X86310582Y85449420D01*
X86239301Y85491129D01*
X86266423Y85504308D01*
X86310582Y85533814D01*
X86325508Y85671335D01*
X85905933Y86090910D01*
X85486358Y85671335D01*
X85125508Y85671335D01*
X84705933Y86090910D01*
X84286358Y85671335D01*
X83925508Y85671335D01*
X83505933Y86090910D01*
X83086358Y85671335D01*
X82725508Y85671335D01*
X82305933Y86090910D01*
X81886358Y85671335D01*
X79394230Y85671335D01*
X79394230Y86118172D01*
X81617326Y86118172D01*
X81625377Y85983321D01*
X81659581Y85852632D01*
X81718624Y85731127D01*
X81748130Y85686968D01*
X81885651Y85672042D01*
X82305226Y86091617D01*
X82306640Y86091617D01*
X82726215Y85672042D01*
X82863736Y85686968D01*
X82905445Y85758249D01*
X82918624Y85731127D01*
X82948130Y85686968D01*
X83085651Y85672042D01*
X83505226Y86091617D01*
X83506640Y86091617D01*
X83926215Y85672042D01*
X84063736Y85686968D01*
X84105445Y85758249D01*
X84118624Y85731127D01*
X84148130Y85686968D01*
X84285651Y85672042D01*
X84705226Y86091617D01*
X84706640Y86091617D01*
X85126215Y85672042D01*
X85263736Y85686968D01*
X85305445Y85758249D01*
X85318624Y85731127D01*
X85348130Y85686968D01*
X85485651Y85672042D01*
X85905226Y86091617D01*
X85906640Y86091617D01*
X86326215Y85672042D01*
X86463736Y85686968D01*
X86531961Y85803565D01*
X86576128Y85931232D01*
X86594540Y86065062D01*
X86586489Y86199913D01*
X86552285Y86330602D01*
X86493242Y86452107D01*
X86463736Y86496266D01*
X86326215Y86511192D01*
X85906640Y86091617D01*
X85905226Y86091617D01*
X85485651Y86511192D01*
X85348130Y86496266D01*
X85306421Y86424985D01*
X85293242Y86452107D01*
X85263736Y86496266D01*
X85126215Y86511192D01*
X84706640Y86091617D01*
X84705226Y86091617D01*
X84285651Y86511192D01*
X84148130Y86496266D01*
X84106421Y86424985D01*
X84093242Y86452107D01*
X84063736Y86496266D01*
X83926215Y86511192D01*
X83506640Y86091617D01*
X83505226Y86091617D01*
X83085651Y86511192D01*
X82948130Y86496266D01*
X82906421Y86424985D01*
X82893242Y86452107D01*
X82863736Y86496266D01*
X82726215Y86511192D01*
X82306640Y86091617D01*
X82305226Y86091617D01*
X81885651Y86511192D01*
X81748130Y86496266D01*
X81679905Y86379669D01*
X81635738Y86252002D01*
X81617326Y86118172D01*
X79394230Y86118172D01*
X79394230Y86871335D01*
X81886358Y86871335D01*
X81901284Y86733814D01*
X81972565Y86692105D01*
X81945443Y86678926D01*
X81901284Y86649420D01*
X81886358Y86511899D01*
X82305933Y86092324D01*
X82725508Y86511899D01*
X82710582Y86649420D01*
X82639301Y86691129D01*
X82666423Y86704308D01*
X82710582Y86733814D01*
X82725508Y86871335D01*
X83086358Y86871335D01*
X83101284Y86733814D01*
X83172565Y86692105D01*
X83145443Y86678926D01*
X83101284Y86649420D01*
X83086358Y86511899D01*
X83505933Y86092324D01*
X83925508Y86511899D01*
X83910582Y86649420D01*
X83839301Y86691129D01*
X83866423Y86704308D01*
X83910582Y86733814D01*
X83925508Y86871335D01*
X84286358Y86871335D01*
X84301284Y86733814D01*
X84372565Y86692105D01*
X84345443Y86678926D01*
X84301284Y86649420D01*
X84286358Y86511899D01*
X84705933Y86092324D01*
X85125508Y86511899D01*
X85110582Y86649420D01*
X85039301Y86691129D01*
X85066423Y86704308D01*
X85110582Y86733814D01*
X85125508Y86871335D01*
X85486358Y86871335D01*
X85501284Y86733814D01*
X85572565Y86692105D01*
X85545443Y86678926D01*
X85501284Y86649420D01*
X85486358Y86511899D01*
X85905933Y86092324D01*
X86325508Y86511899D01*
X86310582Y86649420D01*
X86239301Y86691129D01*
X86266423Y86704308D01*
X86310582Y86733814D01*
X86325508Y86871335D01*
X85905933Y87290910D01*
X85486358Y86871335D01*
X85125508Y86871335D01*
X84705933Y87290910D01*
X84286358Y86871335D01*
X83925508Y86871335D01*
X83505933Y87290910D01*
X83086358Y86871335D01*
X82725508Y86871335D01*
X82305933Y87290910D01*
X81886358Y86871335D01*
X79394230Y86871335D01*
X79394230Y87318172D01*
X81617326Y87318172D01*
X81625377Y87183321D01*
X81659581Y87052632D01*
X81718624Y86931127D01*
X81748130Y86886968D01*
X81885651Y86872042D01*
X82305226Y87291617D01*
X82306640Y87291617D01*
X82726215Y86872042D01*
X82863736Y86886968D01*
X82905445Y86958249D01*
X82918624Y86931127D01*
X82948130Y86886968D01*
X83085651Y86872042D01*
X83505226Y87291617D01*
X83506640Y87291617D01*
X83926215Y86872042D01*
X84063736Y86886968D01*
X84105445Y86958249D01*
X84118624Y86931127D01*
X84148130Y86886968D01*
X84285651Y86872042D01*
X84705226Y87291617D01*
X84706640Y87291617D01*
X85126215Y86872042D01*
X85263736Y86886968D01*
X85305445Y86958249D01*
X85318624Y86931127D01*
X85348130Y86886968D01*
X85485651Y86872042D01*
X85905226Y87291617D01*
X85906640Y87291617D01*
X86326215Y86872042D01*
X86463736Y86886968D01*
X86531961Y87003565D01*
X86576128Y87131232D01*
X86594540Y87265062D01*
X86586489Y87399913D01*
X86552285Y87530602D01*
X86493242Y87652107D01*
X86463736Y87696266D01*
X86326215Y87711192D01*
X85906640Y87291617D01*
X85905226Y87291617D01*
X85485651Y87711192D01*
X85348130Y87696266D01*
X85306421Y87624985D01*
X85293242Y87652107D01*
X85263736Y87696266D01*
X85126215Y87711192D01*
X84706640Y87291617D01*
X84705226Y87291617D01*
X84285651Y87711192D01*
X84148130Y87696266D01*
X84106421Y87624985D01*
X84093242Y87652107D01*
X84063736Y87696266D01*
X83926215Y87711192D01*
X83506640Y87291617D01*
X83505226Y87291617D01*
X83085651Y87711192D01*
X82948130Y87696266D01*
X82906421Y87624985D01*
X82893242Y87652107D01*
X82863736Y87696266D01*
X82726215Y87711192D01*
X82306640Y87291617D01*
X82305226Y87291617D01*
X81885651Y87711192D01*
X81748130Y87696266D01*
X81679905Y87579669D01*
X81635738Y87452002D01*
X81617326Y87318172D01*
X79394230Y87318172D01*
X79394230Y87711899D01*
X81886358Y87711899D01*
X82305933Y87292324D01*
X82725508Y87711899D01*
X83086358Y87711899D01*
X83505933Y87292324D01*
X83925508Y87711899D01*
X84286358Y87711899D01*
X84705933Y87292324D01*
X85125508Y87711899D01*
X85486358Y87711899D01*
X85905933Y87292324D01*
X86325508Y87711899D01*
X86310582Y87849420D01*
X86193985Y87917645D01*
X86066318Y87961812D01*
X85932488Y87980224D01*
X85797637Y87972173D01*
X85666948Y87937969D01*
X85545443Y87878926D01*
X85501284Y87849420D01*
X85486358Y87711899D01*
X85125508Y87711899D01*
X85110582Y87849420D01*
X84993985Y87917645D01*
X84866318Y87961812D01*
X84732488Y87980224D01*
X84597637Y87972173D01*
X84466948Y87937969D01*
X84345443Y87878926D01*
X84301284Y87849420D01*
X84286358Y87711899D01*
X83925508Y87711899D01*
X83910582Y87849420D01*
X83793985Y87917645D01*
X83666318Y87961812D01*
X83532488Y87980224D01*
X83397637Y87972173D01*
X83266948Y87937969D01*
X83145443Y87878926D01*
X83101284Y87849420D01*
X83086358Y87711899D01*
X82725508Y87711899D01*
X82710582Y87849420D01*
X82593985Y87917645D01*
X82466318Y87961812D01*
X82332488Y87980224D01*
X82197637Y87972173D01*
X82066948Y87937969D01*
X81945443Y87878926D01*
X81901284Y87849420D01*
X81886358Y87711899D01*
X79394230Y87711899D01*
X79394230Y88057381D01*
X79417607Y88066448D01*
X79514340Y88127836D01*
X79597307Y88206844D01*
X79663347Y88300463D01*
X79709946Y88405125D01*
X79735328Y88516846D01*
X79737155Y88647704D01*
X79714902Y88760089D01*
X79671244Y88866012D01*
X79607843Y88961438D01*
X79527115Y89042732D01*
X79432134Y89106797D01*
X79326519Y89151194D01*
X79214291Y89174231D01*
X79099726Y89175031D01*
X78987188Y89153563D01*
X78880963Y89110645D01*
X78785097Y89047912D01*
X78703241Y88967754D01*
X78638514Y88873222D01*
X78593381Y88767919D01*
X78569561Y88655855D01*
X78567962Y88541299D01*
X78588643Y88428613D01*
X78606830Y88382679D01*
X78606830Y83586982D01*
X78550841Y83532154D01*
X78486114Y83437622D01*
X78440981Y83332319D01*
X78417161Y83220255D01*
X78415562Y83105699D01*
X76678180Y83105699D01*
X76678180Y90852699D01*
X77653562Y90852699D01*
X77674243Y90740013D01*
X77716419Y90633491D01*
X77778481Y90537189D01*
X77858066Y90454776D01*
X77952143Y90389391D01*
X78057129Y90343524D01*
X78169024Y90318922D01*
X78283566Y90316523D01*
X78396393Y90336418D01*
X78503207Y90377848D01*
X78599940Y90439236D01*
X78682907Y90518244D01*
X78748947Y90611863D01*
X78795546Y90716525D01*
X78820928Y90828246D01*
X78822333Y90928847D01*
X79519206Y91625720D01*
X84196854Y91625720D01*
X86112826Y89709748D01*
X86111762Y89633499D01*
X86132443Y89520813D01*
X86174619Y89414291D01*
X86236681Y89317989D01*
X86316266Y89235576D01*
X86410343Y89170191D01*
X86515329Y89124324D01*
X86627224Y89099722D01*
X86741766Y89097323D01*
X86854593Y89117218D01*
X86961407Y89158648D01*
X87058140Y89220036D01*
X87141107Y89299044D01*
X87207147Y89392663D01*
X87253746Y89497325D01*
X87279128Y89609046D01*
X87280955Y89739904D01*
X87258702Y89852289D01*
X87215044Y89958212D01*
X87151643Y90053638D01*
X87070915Y90134932D01*
X86975934Y90198997D01*
X86870319Y90243394D01*
X86758091Y90266431D01*
X86669073Y90267053D01*
X84638318Y92297808D01*
X84610190Y92320913D01*
X84582358Y92344267D01*
X84580546Y92345263D01*
X84578944Y92346579D01*
X84546867Y92363778D01*
X84515025Y92381284D01*
X84513053Y92381910D01*
X84511228Y92382888D01*
X84476450Y92393521D01*
X84441785Y92404517D01*
X84439728Y92404748D01*
X84437748Y92405353D01*
X84401610Y92409023D01*
X84365427Y92413082D01*
X84361374Y92413110D01*
X84361305Y92413117D01*
X84361241Y92413111D01*
X84359930Y92413120D01*
X79356130Y92413120D01*
X79319934Y92409571D01*
X79283709Y92406402D01*
X79281719Y92405824D01*
X79279660Y92405622D01*
X79244863Y92395116D01*
X79209922Y92384965D01*
X79208083Y92384012D01*
X79206103Y92383414D01*
X79174042Y92366367D01*
X79141705Y92349605D01*
X79140084Y92348311D01*
X79138260Y92347341D01*
X79110133Y92324401D01*
X79081656Y92301668D01*
X79078771Y92298823D01*
X79078716Y92298778D01*
X79078674Y92298727D01*
X79077742Y92297808D01*
X78265803Y91485869D01*
X78185326Y91486431D01*
X78072788Y91464963D01*
X77966563Y91422045D01*
X77870697Y91359312D01*
X77788841Y91279154D01*
X77724114Y91184622D01*
X77678981Y91079319D01*
X77655161Y90967255D01*
X77653562Y90852699D01*
X76678180Y90852699D01*
X76678180Y95102980D01*
X90924480Y95102980D01*
X90924480Y79283860D01*
X90924480Y79283860D01*
G37*
X90924480Y79283860D02*
X76678180Y79283860D01*
X76678180Y81683299D01*
X87635762Y81683299D01*
X87656443Y81570613D01*
X87698619Y81464091D01*
X87760681Y81367789D01*
X87840266Y81285376D01*
X87934343Y81219991D01*
X88039329Y81174124D01*
X88151224Y81149522D01*
X88265766Y81147123D01*
X88378593Y81167018D01*
X88485407Y81208448D01*
X88582140Y81269836D01*
X88665107Y81348844D01*
X88731147Y81442463D01*
X88777746Y81547125D01*
X88803128Y81658846D01*
X88804955Y81789704D01*
X88782702Y81902089D01*
X88739044Y82008012D01*
X88675643Y82103438D01*
X88594915Y82184732D01*
X88499934Y82248797D01*
X88394319Y82293194D01*
X88282091Y82316231D01*
X88167526Y82317031D01*
X88054988Y82295563D01*
X87948763Y82252645D01*
X87852897Y82189912D01*
X87771041Y82109754D01*
X87706314Y82015222D01*
X87661181Y81909919D01*
X87637361Y81797855D01*
X87635762Y81683299D01*
X76678180Y81683299D01*
X76678180Y83105699D01*
X78415562Y83105699D01*
X78436243Y82993013D01*
X78478419Y82886491D01*
X78540481Y82790189D01*
X78620066Y82707776D01*
X78714143Y82642391D01*
X78819129Y82596524D01*
X78931024Y82571922D01*
X79045566Y82569523D01*
X79158393Y82589418D01*
X79265207Y82630848D01*
X79361940Y82692236D01*
X79444907Y82771244D01*
X79510947Y82864863D01*
X79557546Y82969525D01*
X79582928Y83081246D01*
X79584755Y83212104D01*
X79573027Y83271335D01*
X81886358Y83271335D01*
X81901284Y83133814D01*
X82017881Y83065589D01*
X82145548Y83021422D01*
X82279378Y83003010D01*
X82414229Y83011061D01*
X82544918Y83045265D01*
X82666423Y83104308D01*
X82710582Y83133814D01*
X82725508Y83271335D01*
X83086358Y83271335D01*
X83101284Y83133814D01*
X83217881Y83065589D01*
X83345548Y83021422D01*
X83479378Y83003010D01*
X83614229Y83011061D01*
X83744918Y83045265D01*
X83866423Y83104308D01*
X83910582Y83133814D01*
X83925508Y83271335D01*
X84286358Y83271335D01*
X84301284Y83133814D01*
X84417881Y83065589D01*
X84545548Y83021422D01*
X84679378Y83003010D01*
X84814229Y83011061D01*
X84944918Y83045265D01*
X85066423Y83104308D01*
X85110582Y83133814D01*
X85125508Y83271335D01*
X85486358Y83271335D01*
X85501284Y83133814D01*
X85617881Y83065589D01*
X85745548Y83021422D01*
X85879378Y83003010D01*
X86014229Y83011061D01*
X86144918Y83045265D01*
X86266423Y83104308D01*
X86310582Y83133814D01*
X86325508Y83271335D01*
X85905933Y83690910D01*
X85486358Y83271335D01*
X85125508Y83271335D01*
X84705933Y83690910D01*
X84286358Y83271335D01*
X83925508Y83271335D01*
X83505933Y83690910D01*
X83086358Y83271335D01*
X82725508Y83271335D01*
X82305933Y83690910D01*
X81886358Y83271335D01*
X79573027Y83271335D01*
X79562502Y83324489D01*
X79518844Y83430412D01*
X79455443Y83525838D01*
X79394230Y83587480D01*
X79394230Y83718172D01*
X81617326Y83718172D01*
X81625377Y83583321D01*
X81659581Y83452632D01*
X81718624Y83331127D01*
X81748130Y83286968D01*
X81885651Y83272042D01*
X82305226Y83691617D01*
X82306640Y83691617D01*
X82726215Y83272042D01*
X82863736Y83286968D01*
X82905445Y83358249D01*
X82918624Y83331127D01*
X82948130Y83286968D01*
X83085651Y83272042D01*
X83505226Y83691617D01*
X83506640Y83691617D01*
X83926215Y83272042D01*
X84063736Y83286968D01*
X84105445Y83358249D01*
X84118624Y83331127D01*
X84148130Y83286968D01*
X84285651Y83272042D01*
X84705226Y83691617D01*
X84706640Y83691617D01*
X85126215Y83272042D01*
X85263736Y83286968D01*
X85305445Y83358249D01*
X85318624Y83331127D01*
X85348130Y83286968D01*
X85485651Y83272042D01*
X85905226Y83691617D01*
X85906640Y83691617D01*
X86326215Y83272042D01*
X86463736Y83286968D01*
X86531961Y83403565D01*
X86576128Y83531232D01*
X86594540Y83665062D01*
X86586489Y83799913D01*
X86552285Y83930602D01*
X86493242Y84052107D01*
X86463736Y84096266D01*
X86326215Y84111192D01*
X85906640Y83691617D01*
X85905226Y83691617D01*
X85485651Y84111192D01*
X85348130Y84096266D01*
X85306421Y84024985D01*
X85293242Y84052107D01*
X85263736Y84096266D01*
X85126215Y84111192D01*
X84706640Y83691617D01*
X84705226Y83691617D01*
X84285651Y84111192D01*
X84148130Y84096266D01*
X84106421Y84024985D01*
X84093242Y84052107D01*
X84063736Y84096266D01*
X83926215Y84111192D01*
X83506640Y83691617D01*
X83505226Y83691617D01*
X83085651Y84111192D01*
X82948130Y84096266D01*
X82906421Y84024985D01*
X82893242Y84052107D01*
X82863736Y84096266D01*
X82726215Y84111192D01*
X82306640Y83691617D01*
X82305226Y83691617D01*
X81885651Y84111192D01*
X81748130Y84096266D01*
X81679905Y83979669D01*
X81635738Y83852002D01*
X81617326Y83718172D01*
X79394230Y83718172D01*
X79394230Y84471335D01*
X81886358Y84471335D01*
X81901284Y84333814D01*
X81972565Y84292105D01*
X81945443Y84278926D01*
X81901284Y84249420D01*
X81886358Y84111899D01*
X82305933Y83692324D01*
X82725508Y84111899D01*
X82710582Y84249420D01*
X82639301Y84291129D01*
X82666423Y84304308D01*
X82710582Y84333814D01*
X82725508Y84471335D01*
X83086358Y84471335D01*
X83101284Y84333814D01*
X83172565Y84292105D01*
X83145443Y84278926D01*
X83101284Y84249420D01*
X83086358Y84111899D01*
X83505933Y83692324D01*
X83925508Y84111899D01*
X83910582Y84249420D01*
X83839301Y84291129D01*
X83866423Y84304308D01*
X83910582Y84333814D01*
X83925508Y84471335D01*
X84286358Y84471335D01*
X84301284Y84333814D01*
X84372565Y84292105D01*
X84345443Y84278926D01*
X84301284Y84249420D01*
X84286358Y84111899D01*
X84705933Y83692324D01*
X85125508Y84111899D01*
X85110582Y84249420D01*
X85039301Y84291129D01*
X85066423Y84304308D01*
X85110582Y84333814D01*
X85125508Y84471335D01*
X85486358Y84471335D01*
X85501284Y84333814D01*
X85572565Y84292105D01*
X85545443Y84278926D01*
X85501284Y84249420D01*
X85486358Y84111899D01*
X85905933Y83692324D01*
X86325508Y84111899D01*
X86310582Y84249420D01*
X86239301Y84291129D01*
X86266423Y84304308D01*
X86310582Y84333814D01*
X86325508Y84471335D01*
X85905933Y84890910D01*
X85486358Y84471335D01*
X85125508Y84471335D01*
X84705933Y84890910D01*
X84286358Y84471335D01*
X83925508Y84471335D01*
X83505933Y84890910D01*
X83086358Y84471335D01*
X82725508Y84471335D01*
X82305933Y84890910D01*
X81886358Y84471335D01*
X79394230Y84471335D01*
X79394230Y84918172D01*
X81617326Y84918172D01*
X81625377Y84783321D01*
X81659581Y84652632D01*
X81718624Y84531127D01*
X81748130Y84486968D01*
X81885651Y84472042D01*
X82305226Y84891617D01*
X82306640Y84891617D01*
X82726215Y84472042D01*
X82863736Y84486968D01*
X82905445Y84558249D01*
X82918624Y84531127D01*
X82948130Y84486968D01*
X83085651Y84472042D01*
X83505226Y84891617D01*
X83506640Y84891617D01*
X83926215Y84472042D01*
X84063736Y84486968D01*
X84105445Y84558249D01*
X84118624Y84531127D01*
X84148130Y84486968D01*
X84285651Y84472042D01*
X84705226Y84891617D01*
X84706640Y84891617D01*
X85126215Y84472042D01*
X85263736Y84486968D01*
X85305445Y84558249D01*
X85318624Y84531127D01*
X85348130Y84486968D01*
X85485651Y84472042D01*
X85905226Y84891617D01*
X85906640Y84891617D01*
X86326215Y84472042D01*
X86463736Y84486968D01*
X86531961Y84603565D01*
X86576128Y84731232D01*
X86594540Y84865062D01*
X86586489Y84999913D01*
X86552285Y85130602D01*
X86493242Y85252107D01*
X86463736Y85296266D01*
X86326215Y85311192D01*
X85906640Y84891617D01*
X85905226Y84891617D01*
X85485651Y85311192D01*
X85348130Y85296266D01*
X85306421Y85224985D01*
X85293242Y85252107D01*
X85263736Y85296266D01*
X85126215Y85311192D01*
X84706640Y84891617D01*
X84705226Y84891617D01*
X84285651Y85311192D01*
X84148130Y85296266D01*
X84106421Y85224985D01*
X84093242Y85252107D01*
X84063736Y85296266D01*
X83926215Y85311192D01*
X83506640Y84891617D01*
X83505226Y84891617D01*
X83085651Y85311192D01*
X82948130Y85296266D01*
X82906421Y85224985D01*
X82893242Y85252107D01*
X82863736Y85296266D01*
X82726215Y85311192D01*
X82306640Y84891617D01*
X82305226Y84891617D01*
X81885651Y85311192D01*
X81748130Y85296266D01*
X81679905Y85179669D01*
X81635738Y85052002D01*
X81617326Y84918172D01*
X79394230Y84918172D01*
X79394230Y85671335D01*
X81886358Y85671335D01*
X81901284Y85533814D01*
X81972565Y85492105D01*
X81945443Y85478926D01*
X81901284Y85449420D01*
X81886358Y85311899D01*
X82305933Y84892324D01*
X82725508Y85311899D01*
X82710582Y85449420D01*
X82639301Y85491129D01*
X82666423Y85504308D01*
X82710582Y85533814D01*
X82725508Y85671335D01*
X83086358Y85671335D01*
X83101284Y85533814D01*
X83172565Y85492105D01*
X83145443Y85478926D01*
X83101284Y85449420D01*
X83086358Y85311899D01*
X83505933Y84892324D01*
X83925508Y85311899D01*
X83910582Y85449420D01*
X83839301Y85491129D01*
X83866423Y85504308D01*
X83910582Y85533814D01*
X83925508Y85671335D01*
X84286358Y85671335D01*
X84301284Y85533814D01*
X84372565Y85492105D01*
X84345443Y85478926D01*
X84301284Y85449420D01*
X84286358Y85311899D01*
X84705933Y84892324D01*
X85125508Y85311899D01*
X85110582Y85449420D01*
X85039301Y85491129D01*
X85066423Y85504308D01*
X85110582Y85533814D01*
X85125508Y85671335D01*
X85486358Y85671335D01*
X85501284Y85533814D01*
X85572565Y85492105D01*
X85545443Y85478926D01*
X85501284Y85449420D01*
X85486358Y85311899D01*
X85905933Y84892324D01*
X86325508Y85311899D01*
X86310582Y85449420D01*
X86239301Y85491129D01*
X86266423Y85504308D01*
X86310582Y85533814D01*
X86325508Y85671335D01*
X85905933Y86090910D01*
X85486358Y85671335D01*
X85125508Y85671335D01*
X84705933Y86090910D01*
X84286358Y85671335D01*
X83925508Y85671335D01*
X83505933Y86090910D01*
X83086358Y85671335D01*
X82725508Y85671335D01*
X82305933Y86090910D01*
X81886358Y85671335D01*
X79394230Y85671335D01*
X79394230Y86118172D01*
X81617326Y86118172D01*
X81625377Y85983321D01*
X81659581Y85852632D01*
X81718624Y85731127D01*
X81748130Y85686968D01*
X81885651Y85672042D01*
X82305226Y86091617D01*
X82306640Y86091617D01*
X82726215Y85672042D01*
X82863736Y85686968D01*
X82905445Y85758249D01*
X82918624Y85731127D01*
X82948130Y85686968D01*
X83085651Y85672042D01*
X83505226Y86091617D01*
X83506640Y86091617D01*
X83926215Y85672042D01*
X84063736Y85686968D01*
X84105445Y85758249D01*
X84118624Y85731127D01*
X84148130Y85686968D01*
X84285651Y85672042D01*
X84705226Y86091617D01*
X84706640Y86091617D01*
X85126215Y85672042D01*
X85263736Y85686968D01*
X85305445Y85758249D01*
X85318624Y85731127D01*
X85348130Y85686968D01*
X85485651Y85672042D01*
X85905226Y86091617D01*
X85906640Y86091617D01*
X86326215Y85672042D01*
X86463736Y85686968D01*
X86531961Y85803565D01*
X86576128Y85931232D01*
X86594540Y86065062D01*
X86586489Y86199913D01*
X86552285Y86330602D01*
X86493242Y86452107D01*
X86463736Y86496266D01*
X86326215Y86511192D01*
X85906640Y86091617D01*
X85905226Y86091617D01*
X85485651Y86511192D01*
X85348130Y86496266D01*
X85306421Y86424985D01*
X85293242Y86452107D01*
X85263736Y86496266D01*
X85126215Y86511192D01*
X84706640Y86091617D01*
X84705226Y86091617D01*
X84285651Y86511192D01*
X84148130Y86496266D01*
X84106421Y86424985D01*
X84093242Y86452107D01*
X84063736Y86496266D01*
X83926215Y86511192D01*
X83506640Y86091617D01*
X83505226Y86091617D01*
X83085651Y86511192D01*
X82948130Y86496266D01*
X82906421Y86424985D01*
X82893242Y86452107D01*
X82863736Y86496266D01*
X82726215Y86511192D01*
X82306640Y86091617D01*
X82305226Y86091617D01*
X81885651Y86511192D01*
X81748130Y86496266D01*
X81679905Y86379669D01*
X81635738Y86252002D01*
X81617326Y86118172D01*
X79394230Y86118172D01*
X79394230Y86871335D01*
X81886358Y86871335D01*
X81901284Y86733814D01*
X81972565Y86692105D01*
X81945443Y86678926D01*
X81901284Y86649420D01*
X81886358Y86511899D01*
X82305933Y86092324D01*
X82725508Y86511899D01*
X82710582Y86649420D01*
X82639301Y86691129D01*
X82666423Y86704308D01*
X82710582Y86733814D01*
X82725508Y86871335D01*
X83086358Y86871335D01*
X83101284Y86733814D01*
X83172565Y86692105D01*
X83145443Y86678926D01*
X83101284Y86649420D01*
X83086358Y86511899D01*
X83505933Y86092324D01*
X83925508Y86511899D01*
X83910582Y86649420D01*
X83839301Y86691129D01*
X83866423Y86704308D01*
X83910582Y86733814D01*
X83925508Y86871335D01*
X84286358Y86871335D01*
X84301284Y86733814D01*
X84372565Y86692105D01*
X84345443Y86678926D01*
X84301284Y86649420D01*
X84286358Y86511899D01*
X84705933Y86092324D01*
X85125508Y86511899D01*
X85110582Y86649420D01*
X85039301Y86691129D01*
X85066423Y86704308D01*
X85110582Y86733814D01*
X85125508Y86871335D01*
X85486358Y86871335D01*
X85501284Y86733814D01*
X85572565Y86692105D01*
X85545443Y86678926D01*
X85501284Y86649420D01*
X85486358Y86511899D01*
X85905933Y86092324D01*
X86325508Y86511899D01*
X86310582Y86649420D01*
X86239301Y86691129D01*
X86266423Y86704308D01*
X86310582Y86733814D01*
X86325508Y86871335D01*
X85905933Y87290910D01*
X85486358Y86871335D01*
X85125508Y86871335D01*
X84705933Y87290910D01*
X84286358Y86871335D01*
X83925508Y86871335D01*
X83505933Y87290910D01*
X83086358Y86871335D01*
X82725508Y86871335D01*
X82305933Y87290910D01*
X81886358Y86871335D01*
X79394230Y86871335D01*
X79394230Y87318172D01*
X81617326Y87318172D01*
X81625377Y87183321D01*
X81659581Y87052632D01*
X81718624Y86931127D01*
X81748130Y86886968D01*
X81885651Y86872042D01*
X82305226Y87291617D01*
X82306640Y87291617D01*
X82726215Y86872042D01*
X82863736Y86886968D01*
X82905445Y86958249D01*
X82918624Y86931127D01*
X82948130Y86886968D01*
X83085651Y86872042D01*
X83505226Y87291617D01*
X83506640Y87291617D01*
X83926215Y86872042D01*
X84063736Y86886968D01*
X84105445Y86958249D01*
X84118624Y86931127D01*
X84148130Y86886968D01*
X84285651Y86872042D01*
X84705226Y87291617D01*
X84706640Y87291617D01*
X85126215Y86872042D01*
X85263736Y86886968D01*
X85305445Y86958249D01*
X85318624Y86931127D01*
X85348130Y86886968D01*
X85485651Y86872042D01*
X85905226Y87291617D01*
X85906640Y87291617D01*
X86326215Y86872042D01*
X86463736Y86886968D01*
X86531961Y87003565D01*
X86576128Y87131232D01*
X86594540Y87265062D01*
X86586489Y87399913D01*
X86552285Y87530602D01*
X86493242Y87652107D01*
X86463736Y87696266D01*
X86326215Y87711192D01*
X85906640Y87291617D01*
X85905226Y87291617D01*
X85485651Y87711192D01*
X85348130Y87696266D01*
X85306421Y87624985D01*
X85293242Y87652107D01*
X85263736Y87696266D01*
X85126215Y87711192D01*
X84706640Y87291617D01*
X84705226Y87291617D01*
X84285651Y87711192D01*
X84148130Y87696266D01*
X84106421Y87624985D01*
X84093242Y87652107D01*
X84063736Y87696266D01*
X83926215Y87711192D01*
X83506640Y87291617D01*
X83505226Y87291617D01*
X83085651Y87711192D01*
X82948130Y87696266D01*
X82906421Y87624985D01*
X82893242Y87652107D01*
X82863736Y87696266D01*
X82726215Y87711192D01*
X82306640Y87291617D01*
X82305226Y87291617D01*
X81885651Y87711192D01*
X81748130Y87696266D01*
X81679905Y87579669D01*
X81635738Y87452002D01*
X81617326Y87318172D01*
X79394230Y87318172D01*
X79394230Y87711899D01*
X81886358Y87711899D01*
X82305933Y87292324D01*
X82725508Y87711899D01*
X83086358Y87711899D01*
X83505933Y87292324D01*
X83925508Y87711899D01*
X84286358Y87711899D01*
X84705933Y87292324D01*
X85125508Y87711899D01*
X85486358Y87711899D01*
X85905933Y87292324D01*
X86325508Y87711899D01*
X86310582Y87849420D01*
X86193985Y87917645D01*
X86066318Y87961812D01*
X85932488Y87980224D01*
X85797637Y87972173D01*
X85666948Y87937969D01*
X85545443Y87878926D01*
X85501284Y87849420D01*
X85486358Y87711899D01*
X85125508Y87711899D01*
X85110582Y87849420D01*
X84993985Y87917645D01*
X84866318Y87961812D01*
X84732488Y87980224D01*
X84597637Y87972173D01*
X84466948Y87937969D01*
X84345443Y87878926D01*
X84301284Y87849420D01*
X84286358Y87711899D01*
X83925508Y87711899D01*
X83910582Y87849420D01*
X83793985Y87917645D01*
X83666318Y87961812D01*
X83532488Y87980224D01*
X83397637Y87972173D01*
X83266948Y87937969D01*
X83145443Y87878926D01*
X83101284Y87849420D01*
X83086358Y87711899D01*
X82725508Y87711899D01*
X82710582Y87849420D01*
X82593985Y87917645D01*
X82466318Y87961812D01*
X82332488Y87980224D01*
X82197637Y87972173D01*
X82066948Y87937969D01*
X81945443Y87878926D01*
X81901284Y87849420D01*
X81886358Y87711899D01*
X79394230Y87711899D01*
X79394230Y88057381D01*
X79417607Y88066448D01*
X79514340Y88127836D01*
X79597307Y88206844D01*
X79663347Y88300463D01*
X79709946Y88405125D01*
X79735328Y88516846D01*
X79737155Y88647704D01*
X79714902Y88760089D01*
X79671244Y88866012D01*
X79607843Y88961438D01*
X79527115Y89042732D01*
X79432134Y89106797D01*
X79326519Y89151194D01*
X79214291Y89174231D01*
X79099726Y89175031D01*
X78987188Y89153563D01*
X78880963Y89110645D01*
X78785097Y89047912D01*
X78703241Y88967754D01*
X78638514Y88873222D01*
X78593381Y88767919D01*
X78569561Y88655855D01*
X78567962Y88541299D01*
X78588643Y88428613D01*
X78606830Y88382679D01*
X78606830Y83586982D01*
X78550841Y83532154D01*
X78486114Y83437622D01*
X78440981Y83332319D01*
X78417161Y83220255D01*
X78415562Y83105699D01*
X76678180Y83105699D01*
X76678180Y90852699D01*
X77653562Y90852699D01*
X77674243Y90740013D01*
X77716419Y90633491D01*
X77778481Y90537189D01*
X77858066Y90454776D01*
X77952143Y90389391D01*
X78057129Y90343524D01*
X78169024Y90318922D01*
X78283566Y90316523D01*
X78396393Y90336418D01*
X78503207Y90377848D01*
X78599940Y90439236D01*
X78682907Y90518244D01*
X78748947Y90611863D01*
X78795546Y90716525D01*
X78820928Y90828246D01*
X78822333Y90928847D01*
X79519206Y91625720D01*
X84196854Y91625720D01*
X86112826Y89709748D01*
X86111762Y89633499D01*
X86132443Y89520813D01*
X86174619Y89414291D01*
X86236681Y89317989D01*
X86316266Y89235576D01*
X86410343Y89170191D01*
X86515329Y89124324D01*
X86627224Y89099722D01*
X86741766Y89097323D01*
X86854593Y89117218D01*
X86961407Y89158648D01*
X87058140Y89220036D01*
X87141107Y89299044D01*
X87207147Y89392663D01*
X87253746Y89497325D01*
X87279128Y89609046D01*
X87280955Y89739904D01*
X87258702Y89852289D01*
X87215044Y89958212D01*
X87151643Y90053638D01*
X87070915Y90134932D01*
X86975934Y90198997D01*
X86870319Y90243394D01*
X86758091Y90266431D01*
X86669073Y90267053D01*
X84638318Y92297808D01*
X84610190Y92320913D01*
X84582358Y92344267D01*
X84580546Y92345263D01*
X84578944Y92346579D01*
X84546867Y92363778D01*
X84515025Y92381284D01*
X84513053Y92381910D01*
X84511228Y92382888D01*
X84476450Y92393521D01*
X84441785Y92404517D01*
X84439728Y92404748D01*
X84437748Y92405353D01*
X84401610Y92409023D01*
X84365427Y92413082D01*
X84361374Y92413110D01*
X84361305Y92413117D01*
X84361241Y92413111D01*
X84359930Y92413120D01*
X79356130Y92413120D01*
X79319934Y92409571D01*
X79283709Y92406402D01*
X79281719Y92405824D01*
X79279660Y92405622D01*
X79244863Y92395116D01*
X79209922Y92384965D01*
X79208083Y92384012D01*
X79206103Y92383414D01*
X79174042Y92366367D01*
X79141705Y92349605D01*
X79140084Y92348311D01*
X79138260Y92347341D01*
X79110133Y92324401D01*
X79081656Y92301668D01*
X79078771Y92298823D01*
X79078716Y92298778D01*
X79078674Y92298727D01*
X79077742Y92297808D01*
X78265803Y91485869D01*
X78185326Y91486431D01*
X78072788Y91464963D01*
X77966563Y91422045D01*
X77870697Y91359312D01*
X77788841Y91279154D01*
X77724114Y91184622D01*
X77678981Y91079319D01*
X77655161Y90967255D01*
X77653562Y90852699D01*
X76678180Y90852699D01*
X76678180Y95102980D01*
X90924480Y95102980D01*
X90924480Y79283860D01*
M02*
