M48
;DRILL file {KiCad 4.0.0-stable} date Tuesday, December 15, 2015 'AMt' 11:23:08 AM
;FORMAT={-:-/ absolute / inch / decimal}
FMAT,2
INCH,TZ
T1C0.012
T2C0.013
%
G90
G05
M72
T1
X3.0323Y3.2698
X3.0323Y3.7308
X3.0323Y3.1348
X3.0503Y3.5788
X3.0803Y3.5788
X3.1093Y3.2338
X3.1103Y3.2738
X3.1163Y3.4878
X3.1163Y3.6848
X3.1523Y3.5788
X3.1913Y3.4948
X3.1993Y3.2458
X3.2003Y3.7308
X3.2233Y3.1348
X3.2983Y3.7308
X3.3043Y3.5848
X3.3153Y3.6638
X3.4133Y3.5308
X3.4523Y3.5908
X3.4733Y3.2178
X3.4733Y3.1348
X3.4843Y3.6538
X3.5183Y3.7058
X3.5663Y3.7308
X3.5663Y3.5948
X3.5663Y3.5208
X3.5663Y3.4358
X3.5663Y3.2178
X3.5663Y3.1348
T2
X3.2404Y3.4367
X3.2404Y3.3894
X3.2404Y3.3422
X3.2404Y3.2949
X3.2876Y3.4367
X3.2876Y3.3894
X3.2876Y3.3422
X3.2876Y3.2949
X3.3349Y3.4367
X3.3349Y3.3894
X3.3349Y3.3422
X3.3349Y3.2949
X3.3821Y3.4367
X3.3821Y3.3894
X3.3821Y3.3422
X3.3821Y3.2949
T0
M30
